<?xml version="1.0" encoding="utf-8"?>
<!-- Generator: Adobe Illustrator 16.0.0, SVG Export Plug-In . SVG Version: 6.00 Build 0)  -->
<!DOCTYPE svg PUBLIC "-//W3C//DTD SVG 1.1//EN" "http://www.w3.org/Graphics/SVG/1.1/DTD/svg11.dtd">
<svg version="1.1" id="Layer_1" xmlns:sketch="http://www.bohemiancoding.com/sketch/ns"
	 xmlns="http://www.w3.org/2000/svg" xmlns:xlink="http://www.w3.org/1999/xlink" x="0px" y="0px" width="18px" height="18px"
	 viewBox="0 0 18 18" enable-background="new 0 0 18 18" xml:space="preserve">
<title>download</title>
<desc>Created with Sketch.</desc>
<g id="toolbar-icons" sketch:type="MSPage">
	<g id="download" sketch:type="MSArtboardGroup">
		<g id="Imported-Layers" sketch:type="MSLayerGroup">
			<path id="Fill-1" sketch:type="MSShapeGroup" fill="#ADD8EB" d="M1,13c-0.553,0-1,0.447-1,1v1.6C0,16.945,1.098,18,2.5,18h13
				c1.402,0,2.5-1.055,2.5-2.4V14c0-0.553-0.448-1-1-1s-1,0.447-1,1v1.6c0,0.39-0.448,0.4-0.5,0.4h-13C2.448,16,2,15.988,2,15.6V14
				C2,13.447,1.553,13,1,13"/>
			<path id="Fill-2" sketch:type="MSShapeGroup" fill="#ADD8EB" d="M6.586,11.1L6.586,11.1L6.586,11.1"/>
			<path id="Fill-3" sketch:type="MSShapeGroup" fill="#ADD8EB" d="M9.707,13.77l5.062-5.062c0.391-0.391,0.391-1.023,0-1.414
				c-0.392-0.391-1.056-0.391-1.445,0L10,10.586V1c0-0.553-0.448-1-1-1S8,0.447,8,1v9.711L4.676,7.355
				c-0.391-0.39-1.008-0.39-1.399,0C3.082,7.551,2.992,7.807,2.992,8.062c0,0.256,0.102,0.512,0.297,0.707l5.002,5
				C8.682,14.16,9.316,14.16,9.707,13.77"/>
		</g>
	</g>
</g>
</svg>
