<?xml version="1.0" encoding="utf-8"?>
<!-- Generator: Adobe Illustrator 16.0.0, SVG Export Plug-In . SVG Version: 6.00 Build 0)  -->
<!DOCTYPE svg PUBLIC "-//W3C//DTD SVG 1.1//EN" "http://www.w3.org/Graphics/SVG/1.1/DTD/svg11.dtd">
<svg version="1.1" id="Layer_1" xmlns="http://www.w3.org/2000/svg" xmlns:xlink="http://www.w3.org/1999/xlink" x="0px" y="0px"
	 width="726.716px" height="203.543px" viewBox="490.748 332.906 726.716 203.543"
	 enable-background="new 490.748 332.906 726.716 203.543" xml:space="preserve">
<path fill="#F0F0F0" d="M961.718,467.402c-23.421,0-41.165-10.014-57.962-33.104c15.176-22.271,33.389-32.329,57.962-32.329
	c19.104,0,34.659,14.681,34.659,32.719S980.822,467.402,961.718,467.402z M961.718,370.724c-30.831,0-55.673,12.497-75.467,38.052
	c-21.025-25.86-45.106-38.052-74.656-38.052c-34.584,0-62.723,28.694-62.723,63.963c0,35.137,27.917,63.745,62.326,63.952v0.016
	c0.07,0,0.161-0.007,0.229-0.007c0.058,0,0.114,0.007,0.153,0.007c0.025,0,0.039,0,0.054,0v-0.007
	c25.785,0,48.601-10.534,67.197-30.518c0,0-29.764,12.327-53.164-23.768c0,10.685-0.035,19.244-0.035,21.704
	c-4.792,0.824-6.652,1.32-14.434,1.32c-17.883,0-34.259-14.775-34.259-32.699c0-18.039,15.547-32.72,34.655-32.72
	c23.314,0,41.005,9.938,57.745,32.799l5.643,8.938c23.804,37.484,51.355,54.949,86.735,54.949c34.581,0,62.712-28.695,62.712-63.967
	S996.299,370.724,961.718,370.724z"/>
<path fill="#F0F0F0" d="M1154.024,491.648h63.439v44.8h-116.36V332.906h52.921V491.648z"/>
<path fill="#F0F0F0" d="M620.052,411.477v-78.569h52.917v203.542h-52.917v-83.401h-76.402v83.401h-52.901V332.906h52.901v78.569
	L620.052,411.477L620.052,411.477z"/>
</svg>
