<?xml version="1.0" encoding="utf-8"?>
<!-- Generator: Adobe Illustrator 16.0.0, SVG Export Plug-In . SVG Version: 6.00 Build 0)  -->
<!DOCTYPE svg PUBLIC "-//W3C//DTD SVG 1.1//EN" "http://www.w3.org/Graphics/SVG/1.1/DTD/svg11.dtd">
<svg version="1.1" id="Layer_1" xmlns:sketch="http://www.bohemiancoding.com/sketch/ns"
	 xmlns="http://www.w3.org/2000/svg" xmlns:xlink="http://www.w3.org/1999/xlink" x="0px" y="0px" width="18px" height="18px"
	 viewBox="0 0 18 18" enable-background="new 0 0 18 18" xml:space="preserve">
<title>menu</title>
<desc>Created with Sketch.</desc>
<g id="toolbar-icons" sketch:type="MSPage">
	<g id="menu" sketch:type="MSArtboardGroup">
		<g id="Imported-Layers" transform="translate(0.000000, 3.000000)" sketch:type="MSLayerGroup">
			<path id="Fill-1" sketch:type="MSShapeGroup" fill="#FFFFFF" d="M17.01,0H0.99C0.443,0,0,0.443,0,0.99v0.02
				C0,1.557,0.443,2,0.99,2h16.02C17.557,2,18,1.557,18,1.01V0.99C18,0.443,17.557,0,17.01,0"/>
			<path id="Fill-2" sketch:type="MSShapeGroup" fill="#FFFFFF" d="M17.01,10H0.99C0.443,10,0,10.443,0,10.99v0.02
				C0,11.557,0.443,12,0.99,12h16.02c0.547,0,0.99-0.443,0.99-0.99v-0.02C18,10.443,17.557,10,17.01,10"/>
			<path id="Fill-3" sketch:type="MSShapeGroup" fill="#FFFFFF" d="M17.01,5H0.99C0.443,5,0,5.443,0,5.99v0.02
				C0,6.557,0.443,7,0.99,7h16.02C17.557,7,18,6.557,18,6.01V5.99C18,5.443,17.557,5,17.01,5"/>
		</g>
	</g>
</g>
</svg>
