<?xml version="1.0" encoding="utf-8"?>
<!-- Generator: Adobe Illustrator 16.0.0, SVG Export Plug-In . SVG Version: 6.00 Build 0)  -->
<!DOCTYPE svg PUBLIC "-//W3C//DTD SVG 1.1//EN" "http://www.w3.org/Graphics/SVG/1.1/DTD/svg11.dtd">
<svg version="1.1" id="Layer_1" xmlns="http://www.w3.org/2000/svg" xmlns:xlink="http://www.w3.org/1999/xlink" x="0px" y="0px"
	 width="124.016px" height="139.182px" viewBox="0 0 124.016 139.182" enable-background="new 0 0 124.016 139.182"
	 xml:space="preserve">
<g display="none">
	<path display="inline" fill="#FFFFFF" d="M3.5,40.809c0-2.75,1.948-6.125,4.329-7.5L57.678,4.531c2.381-1.375,6.279-1.375,8.66,0
		l49.848,28.778c2.381,1.375,4.33,4.75,4.33,7.5v57.562c0,2.75-1.949,6.125-4.33,7.5L66.338,134.65c-2.381,1.375-6.279,1.375-8.66,0
		L7.829,105.871c-2.381-1.375-4.329-4.75-4.329-7.5V40.809L3.5,40.809z"/>
	<path display="inline" fill="none" stroke="#134D71" stroke-width="7" stroke-miterlimit="10" d="M3.5,40.809
		c0-2.75,1.948-6.125,4.329-7.5L57.678,4.531c2.381-1.375,6.279-1.375,8.66,0l49.848,28.778c2.381,1.375,4.33,4.75,4.33,7.5v57.562
		c0,2.75-1.949,6.125-4.33,7.5L66.338,134.65c-2.381,1.375-6.279,1.375-8.66,0L7.829,105.871c-2.381-1.375-4.329-4.75-4.329-7.5
		V40.809L3.5,40.809z"/>
</g>
<g display="none">
	<path display="inline" fill="#368AC0" d="M10.545,44.726c0-2.75,1.949-6.125,4.33-7.5L57.94,12.364c2.381-1.375,6.279-1.375,8.66,0
		l43.063,24.862c2.381,1.375,4.33,4.75,4.33,7.5v49.729c0,2.75-1.949,6.125-4.33,7.5L66.6,126.817c-2.381,1.375-6.279,1.375-8.66,0
		l-43.064-24.862c-2.381-1.375-4.33-4.75-4.33-7.5V44.726z"/>
</g>
<text transform="matrix(1 0 0 1 23.7463 80.3406)" display="none" fill="#134D70" font-family="'ProximaNova-Regular'" font-size="6">The Hook &amp; Loop Experience</text>
<path fill="#134D70" d="M69.903,67.012c-1.66,0-2.92-0.71-4.111-2.349c1.077-1.579,2.369-2.293,4.111-2.293
	c1.355,0,2.459,1.041,2.459,2.321C72.362,65.971,71.258,67.012,69.903,67.012z M69.903,60.155c-2.187,0-3.949,0.886-5.353,2.698
	c-1.491-1.834-3.199-2.698-5.295-2.698c-2.453,0-4.449,2.035-4.449,4.537c0,2.492,1.98,4.521,4.421,4.536v0.001
	c0.005,0,0.012-0.001,0.016-0.001s0.008,0.001,0.011,0.001c0.001,0,0.002,0,0.004,0v-0.001c1.829,0,3.448-0.747,4.766-2.164
	c0,0-2.111,0.874-3.771-1.687c0,0.758-0.002,1.365-0.002,1.54c-0.34,0.059-0.472,0.094-1.024,0.094c-1.269,0-2.43-1.048-2.43-2.319
	c0-1.28,1.103-2.321,2.458-2.321c1.654,0,2.909,0.705,4.096,2.326l0.399,0.635c1.689,2.658,3.644,3.897,6.152,3.897
	c2.453,0,4.449-2.035,4.449-4.537S72.356,60.155,69.903,60.155z"/>
<path fill="#134D70" d="M83.543,68.732h4.5v3.178H79.79V57.472h3.753V68.732z"/>
<path fill="#134D70" d="M45.668,63.046v-5.573h3.753V71.91h-3.753v-5.916h-5.419v5.916h-3.752V57.472h3.752v5.573H45.668z"/>
</svg>
