<?xml version="1.0" encoding="utf-8"?>
<!-- Generator: Adobe Illustrator 16.0.0, SVG Export Plug-In . SVG Version: 6.00 Build 0)  -->
<!DOCTYPE svg PUBLIC "-//W3C//DTD SVG 1.1//EN" "http://www.w3.org/Graphics/SVG/1.1/DTD/svg11.dtd">
<svg version="1.1" id="Layer_1" xmlns="http://www.w3.org/2000/svg" xmlns:xlink="http://www.w3.org/1999/xlink" x="0px" y="0px"
	 width="86.634px" height="39.521px" viewBox="0 0 86.634 39.521" enable-background="new 0 0 86.634 39.521" xml:space="preserve">
<circle fill="#448D83" cx="20.565" cy="35.903" r="3.618"/>
<circle fill="#448D83" cx="11.591" cy="35.903" r="3.618"/>
<circle fill="#448D83" cx="75.455" cy="35.903" r="3.618"/>
<circle fill="#448D83" cx="66.481" cy="35.903" r="3.618"/>
<path fill="#7CC0B5" stroke="#448D83" stroke-width="2" stroke-linecap="round" stroke-miterlimit="10" d="M84.212,28.814
	c0,2.881-2.335,5.216-5.215,5.216H8.349c-2.88,0-5.215-2.335-5.215-5.216V7.716c0-2.881,2.335-5.216,5.215-5.216h70.648
	c2.88,0,5.215,2.335,5.215,5.216V28.814z"/>
<rect x="1" y="30" fill="#7CC0B5" stroke="#448D83" stroke-width="2" stroke-linecap="round" stroke-miterlimit="10" width="84.634" height="5.453"/>
<path fill="#69ADA3" stroke="#448D83" stroke-width="2" stroke-linecap="round" stroke-miterlimit="10" d="M9.179,19.807
	c0,1.309-1.061,2.37-2.371,2.37H4.195c-1.31,0-1.062-1.062-1.062-2.37v-9.721c0-1.309-0.248-2.37,1.062-2.37h2.612
	c1.311,0,2.371,1.062,2.371,2.37V19.807z"/>
<path fill="#69ADA3" stroke="#448D83" stroke-width="2" stroke-linecap="round" stroke-miterlimit="10" d="M78.147,19.807
	c0,1.309,1.062,2.37,2.371,2.37h2.613c1.31,0,1.062-1.062,1.062-2.37v-9.721c0-1.309,0.248-2.37-1.062-2.37h-2.613
	c-1.309,0-2.371,1.062-2.371,2.37V19.807z"/>
<circle fill="#DE8181" cx="6.146" cy="25.812" r="1.029"/>
<path fill="#448D83" stroke="#448D83" stroke-linecap="round" stroke-miterlimit="10" d="M23.878,7.716h-8.18
	c-1.309,0-2.371,1.062-2.371,2.37h12.921C26.248,8.777,25.187,7.716,23.878,7.716z"/>
<path fill="#69ADA3" stroke="#448D83" stroke-linecap="round" stroke-miterlimit="10" d="M13.327,10.086v3.082
	c0,1.31,1.062,2.371,2.371,2.371h8.18c1.309,0,2.37-1.062,2.37-2.371v-3.082H13.327z"/>
<path fill="#69ADA3" stroke="#448D83" stroke-linecap="round" stroke-miterlimit="10" d="M40.749,26.291
	c0,1.309-1.062,1.061-2.371,1.061h-7.033c-1.309,0-2.37,0.248-2.37-1.061V10.086c0-1.309,1.062-2.37,2.37-2.37h7.033
	c1.31,0,2.371,1.062,2.371,2.37V26.291z"/>
<line fill="none" stroke="#448D83" stroke-linecap="round" stroke-miterlimit="10" x1="34.861" y1="7.716" x2="34.861" y2="27.352"/>
<path fill="#448D83" d="M33.637,16.595c0,0.524-0.425,0.948-0.948,0.948h-1.66c-0.523,0-0.947-0.424-0.947-0.948v-5.56
	c0-0.524,0.424-0.949,0.947-0.949h1.66c0.523,0,0.948,0.425,0.948,0.949V16.595z"/>
<path fill="#448D83" d="M39.636,16.595c0,0.524-0.424,0.948-0.947,0.948h-1.66c-0.523,0-0.948-0.424-0.948-0.948v-5.56
	c0-0.524,0.425-0.949,0.948-0.949h1.66c0.523,0,0.947,0.425,0.947,0.949V16.595z"/>
<rect x="27.946" y="26.842" fill="#448D83" width="13.83" height="1.003"/>
<line fill="none" stroke="#448D83" stroke-linecap="round" stroke-miterlimit="10" x1="12.794" y1="18.533" x2="26.841" y2="18.533"/>
<line fill="none" stroke="#448D83" stroke-linecap="round" stroke-miterlimit="10" x1="12.794" y1="20.956" x2="26.841" y2="20.956"/>
<path fill="#448D83" stroke="#448D83" stroke-linecap="round" stroke-miterlimit="10" d="M54.756,7.716h-8.179
	c-1.31,0-2.371,1.062-2.371,2.37h12.92C57.126,8.777,56.065,7.716,54.756,7.716z"/>
<path fill="#69ADA3" stroke="#448D83" stroke-linecap="round" stroke-miterlimit="10" d="M44.206,10.086v3.082
	c0,1.31,1.062,2.371,2.371,2.371h8.179c1.31,0,2.37-1.062,2.37-2.371v-3.082H44.206z"/>
<path fill="#69ADA3" stroke="#448D83" stroke-linecap="round" stroke-miterlimit="10" d="M71.628,26.291
	c0,1.309-1.062,1.061-2.371,1.061h-7.033c-1.31,0-2.371,0.248-2.371-1.061V10.086c0-1.309,1.062-2.37,2.371-2.37h7.033
	c1.309,0,2.371,1.062,2.371,2.37V26.291z"/>
<line fill="none" stroke="#448D83" stroke-linecap="round" stroke-miterlimit="10" x1="65.739" y1="7.716" x2="65.739" y2="27.352"/>
<path fill="#448D83" d="M64.515,16.595c0,0.524-0.424,0.948-0.947,0.948h-1.66c-0.523,0-0.948-0.424-0.948-0.948v-5.56
	c0-0.524,0.425-0.949,0.948-0.949h1.66c0.523,0,0.947,0.425,0.947,0.949V16.595z"/>
<path fill="#448D83" d="M70.515,16.595c0,0.524-0.425,0.948-0.948,0.948h-1.659c-0.523,0-0.949-0.424-0.949-0.948v-5.56
	c0-0.524,0.426-0.949,0.949-0.949h1.659c0.523,0,0.948,0.425,0.948,0.949V16.595z"/>
<rect x="58.825" y="26.842" fill="#448D83" width="13.829" height="1.003"/>
<line fill="none" stroke="#448D83" stroke-linecap="round" stroke-miterlimit="10" x1="43.673" y1="18.533" x2="57.72" y2="18.533"/>
<line fill="none" stroke="#448D83" stroke-linecap="round" stroke-miterlimit="10" x1="43.673" y1="20.956" x2="57.72" y2="20.956"/>
<line fill="none" stroke="#A9E1D6" stroke-width="0.5" stroke-miterlimit="10" x1="7.974" y1="5.002" x2="78.147" y2="5.002"/>
<path fill="#579E95" d="M32.688,10.086h-1.66c-0.523,0-0.947,0.425-0.947,0.949v5.56c0,0.282,0.129,0.529,0.324,0.702l2.876-6.985
	C33.116,10.177,32.915,10.086,32.688,10.086z"/>
<path fill="#579E95" d="M38.688,10.086h-1.66c-0.523,0-0.947,0.425-0.947,0.949v5.56c0,0.282,0.129,0.529,0.324,0.702l2.876-6.985
	C39.116,10.177,38.915,10.086,38.688,10.086z"/>
<path fill="#579E95" d="M63.566,10.086h-1.66c-0.523,0-0.947,0.425-0.947,0.949v5.56c0,0.282,0.129,0.529,0.324,0.702l2.876-6.985
	C63.995,10.177,63.794,10.086,63.566,10.086z"/>
<path fill="#579E95" d="M69.566,10.086h-1.66c-0.523,0-0.947,0.425-0.947,0.949v5.56c0,0.282,0.129,0.529,0.324,0.702l2.876-6.985
	C69.995,10.177,69.794,10.086,69.566,10.086z"/>
<circle fill="#DE8181" cx="81.18" cy="25.812" r="1.029"/>
<circle fill="#F8E09C" cx="46.287" cy="9.055" r="1.031"/>
<text transform="matrix(1 0 0 1 48.207 9.333)" fill="#A9E1D6" font-family="'ProximaNova-Black'" font-size="1">HOOK &amp; LOOP</text>
<text transform="matrix(1 0 0 1 45.9121 9.6055)" fill="#448D83" font-family="'ProximaNova-Black'" font-size="1.6799">L</text>
</svg>
